<svg width="24" height="24" viewBox="0 0 24 24" fill="none" xmlns="http://www.w3.org/2000/svg">
<path d="M22.7478 11.6437L22.7471 11.6426L18.2567 5.35225C17.9203 4.88102 17.3761 4.88278 17.0413 5.35637C16.7065 5.8299 16.7078 6.5958 17.0442 7.06709L20.059 11.2903H1.85927C1.38464 11.2903 1.50083 11.8319 1.50083 12.5C1.50083 13.1681 1.38464 13.7097 1.85927 13.7097H20.059L17.0442 17.9329C16.7078 18.4042 16.7065 19.1701 17.0413 19.6436C17.3762 20.1173 17.9203 20.1189 18.2567 19.6477L22.7471 13.3574L22.7479 13.3563C23.0845 12.8834 23.0834 12.115 22.7478 11.6437Z" fill="white"/>
</svg>
