<svg width="18" height="13" viewBox="0 0 18 13" fill="none" xmlns="http://www.w3.org/2000/svg">
<path d="M15.5667 0H1.5C0.673933 0 0 0.6732 0 1.5V11.5C0 12.324 0.670933 13 1.5 13H15.5667C16.3907 13 17.0667 12.3291 17.0667 11.5V1.5C17.0667 0.676 16.3957 0 15.5667 0ZM15.3595 1L8.56513 7.79443L1.71197 1H15.3595ZM1 11.2929V1.7023L5.81597 6.47697L1 11.2929ZM1.7071 12L6.5261 7.181L8.21467 8.85507C8.41013 9.04887 8.72557 9.04823 8.92023 8.85353L10.5667 7.2071L15.3596 12H1.7071ZM16.0667 11.2929L11.2738 6.5L16.0667 1.70707V11.2929Z" fill="#2C3A39"/>
</svg>
