<svg width="11" height="13" viewBox="0 0 11 13" fill="none" xmlns="http://www.w3.org/2000/svg">
<path d="M5.46594 0C1.89702 0.000541674 0 2.2837 0 4.77323C0 5.92754 0.646083 7.36785 1.68057 7.82449C1.97568 7.9572 1.93662 7.79523 2.1905 6.82564C2.21057 6.74493 2.20026 6.67505 2.13517 6.59976C0.65639 4.89186 1.84657 1.38073 5.25492 1.38073C10.1876 1.38073 9.26594 8.19607 6.1131 8.19607C5.30048 8.19607 4.69509 7.55907 4.88658 6.77093C5.11876 5.83221 5.57335 4.82307 5.57335 4.14652C5.57335 2.44133 3.02916 2.69429 3.02916 4.95361C3.02916 5.65183 3.27652 6.12309 3.27652 6.12309C3.27652 6.12309 2.45794 9.42513 2.30604 10.0421C2.04891 11.0864 2.34076 12.777 2.36626 12.9227C2.38199 13.0029 2.47204 13.0284 2.52249 12.9623C2.60332 12.8566 3.59278 11.4472 3.86999 10.4283C3.97089 10.0573 4.38479 8.55141 4.38479 8.55141C4.65766 9.04325 5.44424 9.45493 6.28236 9.45493C8.77555 9.45493 10.5776 7.26656 10.5776 4.55115C10.569 1.94786 8.33778 0 5.46594 0V0Z" fill="#081E1C"/>
</svg>
