<svg width="15" height="13" viewBox="0 0 15 13" fill="none" xmlns="http://www.w3.org/2000/svg">
<path d="M15 2.30223C14.4794 2.52308 13.9246 2.66946 13.3462 2.74054C13.9412 2.397 14.3954 1.85715 14.6089 1.20646C14.0541 1.52631 13.4416 1.75223 12.7889 1.87831C12.2621 1.33592 11.5114 1 10.6924 1C9.10337 1 7.82412 2.24723 7.82412 3.77623C7.82412 3.99623 7.84337 4.20777 7.89062 4.40915C5.5045 4.29662 3.39313 3.19069 1.97475 1.506C1.72712 1.92146 1.58188 2.397 1.58188 2.90892C1.58188 3.87015 2.09375 4.72223 2.85675 5.21554C2.39562 5.20708 1.94325 5.07762 1.56 4.87369C1.56 4.88215 1.56 4.89315 1.56 4.90415C1.56 6.25292 2.55487 7.37323 3.8595 7.63131C3.62587 7.69308 3.37125 7.72269 3.107 7.72269C2.92325 7.72269 2.73775 7.71254 2.56362 7.67531C2.9355 8.77446 3.99075 9.58254 5.2455 9.60877C4.269 10.3475 3.02913 10.7925 1.68688 10.7925C1.4515 10.7925 1.22575 10.7824 1 10.7545C2.27137 11.5473 3.77813 12 5.403 12C10.6845 12 13.572 7.76923 13.572 4.102C13.572 3.97931 13.5676 3.86085 13.5615 3.74323C14.1311 3.35231 14.6097 2.86408 15 2.30223Z" fill="#2C3A39"/>
</svg>
